<svg width="749" height="458" viewBox="0 0 749 458" fill="none" xmlns="http://www.w3.org/2000/svg">
    <path d="M384.222 369.783L122.391 437.207C113.509 439.483 104.087 438.144 96.1922 433.482C88.297 428.82 82.5733 421.217 80.2768 412.341L1.09679 104.842C-1.17953 95.9604 0.160083 86.5385 4.82174 78.6434C9.48339 70.7482 17.0864 65.0245 25.9628 62.728L269.554 0.000991821L331.897 27.911L409.088 327.668C411.364 336.55 410.025 345.972 405.363 353.867C400.702 361.763 393.098 367.486 384.222 369.783Z"
          fill="#F2F2F2"/>
    <path d="M28.4409 72.369C22.1198 74.0043 16.7054 78.0802 13.3857 83.7025C10.066 89.3247 9.11194 96.0342 10.7329 102.359L89.9179 409.859C91.5532 416.18 95.629 421.594 101.251 424.914C106.874 428.234 113.583 429.188 119.908 427.567L381.739 360.144C388.06 358.509 393.474 354.433 396.794 348.811C400.114 343.188 401.068 336.479 399.447 330.154L323.452 35.039L268.66 10.51L28.4409 72.369Z"
          fill="white"/>
    <path d="M331.232 29.5L290.71 39.935C287.751 40.6966 284.612 40.252 281.981 38.6988C279.351 37.1456 277.445 34.6112 276.684 31.653L268.977 1.724C268.943 1.59304 268.947 1.45528 268.988 1.32649C269.029 1.1977 269.106 1.08308 269.209 0.995744C269.312 0.908411 269.438 0.851905 269.572 0.832673C269.705 0.813441 269.842 0.832259 269.966 0.886995L331.345 28.145C331.481 28.2058 331.595 28.3075 331.672 28.4361C331.748 28.5647 331.782 28.7137 331.769 28.8626C331.757 29.0115 331.699 29.1529 331.602 29.2671C331.506 29.3813 331.376 29.4627 331.232 29.5Z"
          fill="#F2F2F2"/>
    <path d="M309.914 292.095L190.706 322.795C189.23 323.166 187.667 322.938 186.359 322.161C185.051 321.383 184.103 320.12 183.724 318.646C183.344 317.172 183.564 315.608 184.334 314.296C185.104 312.983 186.362 312.029 187.834 311.641L307.042 280.941C307.775 280.748 308.54 280.701 309.292 280.804C310.044 280.908 310.768 281.159 311.423 281.543C312.078 281.927 312.65 282.436 313.107 283.042C313.564 283.648 313.897 284.339 314.086 285.074C314.275 285.809 314.317 286.574 314.21 287.325C314.102 288.077 313.847 288.8 313.46 289.452C313.072 290.105 312.559 290.674 311.95 291.128C311.342 291.581 310.65 291.91 309.914 292.095Z"
          fill="#F4F4F4"/>
    <path d="M337.765 304.993L195.552 341.615C194.818 341.808 194.053 341.855 193.301 341.752C192.549 341.648 191.825 341.397 191.17 341.013C190.515 340.629 189.943 340.12 189.486 339.514C189.029 338.908 188.696 338.217 188.507 337.482C188.318 336.747 188.276 335.982 188.383 335.23C188.491 334.479 188.746 333.756 189.133 333.104C189.521 332.451 190.034 331.882 190.643 331.428C191.251 330.975 191.944 330.646 192.68 330.461L334.893 293.839C336.368 293.468 337.931 293.696 339.239 294.473C340.547 295.251 341.495 296.514 341.874 297.988C342.254 299.462 342.035 301.026 341.264 302.338C340.494 303.651 339.236 304.605 337.765 304.993Z"
          fill="#F4F4F4"/>
    <path d="M142.052 359.765C153.294 359.765 162.407 350.652 162.407 339.41C162.407 328.168 153.294 319.055 142.052 319.055C130.811 319.055 121.697 328.168 121.697 339.41C121.697 350.652 130.811 359.765 142.052 359.765Z"
          fill="#F4F4F4"/>
    <path d="M297.238 238.826L138.917 279.58C134.341 280.752 129.487 280.062 125.42 277.66C121.353 275.258 118.405 271.341 117.223 266.768L84.0455 137.879C82.8743 133.304 83.5654 128.451 85.9672 124.385C88.369 120.319 92.2854 117.371 96.8575 116.189L255.178 75.435C259.753 74.2626 264.607 74.9531 268.674 77.355C272.741 79.7569 275.689 83.6741 276.872 88.247L310.049 217.136C311.221 221.711 310.53 226.564 308.128 230.63C305.726 234.696 301.81 237.644 297.238 238.826Z"
          fill="white"/>
    <path d="M297.238 238.826L138.917 279.58C134.341 280.752 129.487 280.062 125.42 277.66C121.353 275.258 118.405 271.341 117.223 266.768L84.0455 137.879C82.8743 133.304 83.5654 128.451 85.9672 124.385C88.369 120.319 92.2854 117.371 96.8575 116.189L255.178 75.435C259.753 74.2626 264.607 74.9531 268.674 77.355C272.741 79.7569 275.689 83.6741 276.872 88.247L310.049 217.136C311.221 221.711 310.53 226.564 308.128 230.63C305.726 234.696 301.81 237.644 297.238 238.826ZM97.3795 118.215C93.3454 119.259 89.8902 121.861 87.7719 125.45C85.6535 129.038 85.0449 133.32 86.0795 137.357L119.258 266.246C120.302 270.28 122.904 273.735 126.492 275.854C130.081 277.972 134.363 278.581 138.4 277.546L296.717 236.796C300.751 235.752 304.206 233.15 306.324 229.561C308.443 225.973 309.051 221.691 308.017 217.654L274.842 88.765C273.797 84.7309 271.195 81.2757 267.607 79.1573C264.018 77.039 259.736 76.4304 255.7 77.465L97.3795 118.215Z"
          fill="#F4F4F4"/>
    <path d="M247.146 118.769L167.246 139.337C166.548 139.532 165.801 139.455 165.158 139.12C164.514 138.786 164.022 138.22 163.779 137.537C163.666 137.18 163.628 136.803 163.665 136.431C163.703 136.058 163.816 135.697 163.998 135.369C164.179 135.042 164.426 134.755 164.722 134.526C165.019 134.297 165.359 134.13 165.721 134.037L247.056 113.1C250.342 114.765 249.477 118.17 247.147 118.77L247.146 118.769Z"
          fill="#F2F2F2"/>
    <path d="M250.751 132.78L170.851 153.348C170.152 153.543 169.406 153.466 168.762 153.131C168.119 152.797 167.626 152.231 167.384 151.548C167.271 151.191 167.232 150.814 167.27 150.442C167.307 150.069 167.42 149.708 167.602 149.38C167.784 149.053 168.03 148.766 168.327 148.537C168.623 148.308 168.963 148.141 169.326 148.048L250.661 127.111C253.947 128.776 253.082 132.181 250.752 132.781L250.751 132.78Z"
          fill="#F2F2F2"/>
    <path d="M155.633 165.778L131.248 172.053C130.854 172.155 130.443 172.178 130.04 172.12C129.637 172.063 129.249 171.927 128.898 171.72C128.547 171.513 128.241 171.239 127.996 170.914C127.751 170.588 127.573 170.217 127.472 169.823L120.064 141.053C119.962 140.659 119.939 140.248 119.996 139.845C120.053 139.442 120.189 139.054 120.397 138.703C120.604 138.352 120.878 138.046 121.203 137.801C121.529 137.557 121.899 137.378 122.294 137.277L146.679 131C147.475 130.796 148.32 130.916 149.028 131.334C149.736 131.752 150.249 132.434 150.455 133.23L157.863 162.007C157.965 162.401 157.987 162.812 157.93 163.215C157.873 163.618 157.737 164.006 157.53 164.357C157.323 164.708 157.049 165.014 156.723 165.259C156.398 165.503 156.027 165.682 155.633 165.783V165.778Z"
          fill="#F4F4F4"/>
    <path d="M257.908 161.541L135.963 192.931C135.265 193.126 134.518 193.049 133.875 192.714C133.231 192.38 132.738 191.814 132.496 191.131C132.383 190.774 132.345 190.397 132.382 190.025C132.42 189.652 132.533 189.291 132.714 188.963C132.896 188.636 133.143 188.349 133.439 188.12C133.735 187.891 134.075 187.724 134.438 187.631L257.818 155.871C261.104 157.536 260.238 160.941 257.908 161.541Z"
          fill="#F2F2F2"/>
    <path d="M261.518 175.559L139.571 206.95C138.873 207.145 138.127 207.068 137.483 206.733C136.84 206.399 136.347 205.833 136.104 205.15C135.992 204.793 135.953 204.416 135.99 204.044C136.028 203.671 136.141 203.31 136.323 202.982C136.505 202.655 136.751 202.368 137.047 202.139C137.344 201.91 137.684 201.743 138.046 201.65L261.426 169.89C264.712 171.555 263.847 174.96 261.517 175.56L261.518 175.559Z"
          fill="#F2F2F2"/>
    <path d="M265.123 189.571L143.178 220.961C142.48 221.156 141.733 221.079 141.09 220.744C140.446 220.41 139.953 219.844 139.711 219.161C139.598 218.804 139.559 218.427 139.597 218.055C139.634 217.682 139.747 217.321 139.929 216.993C140.111 216.666 140.358 216.379 140.654 216.15C140.95 215.921 141.29 215.754 141.653 215.661L265.032 183.901C268.318 185.566 267.453 188.971 265.123 189.571Z"
          fill="#F2F2F2"/>
    <path d="M268.732 203.589L146.786 234.979C146.088 235.174 145.342 235.097 144.698 234.762C144.054 234.428 143.562 233.862 143.319 233.179C143.207 232.822 143.168 232.445 143.205 232.073C143.243 231.7 143.356 231.339 143.538 231.011C143.719 230.684 143.966 230.397 144.262 230.168C144.559 229.939 144.899 229.772 145.261 229.679L268.641 197.919C271.926 199.584 271.062 202.989 268.732 203.589Z"
          fill="#F2F2F2"/>
    <path d="M272.339 217.6L150.394 248.99C149.695 249.185 148.949 249.108 148.305 248.773C147.662 248.439 147.169 247.873 146.927 247.19C146.814 246.833 146.775 246.456 146.813 246.084C146.85 245.711 146.963 245.35 147.145 245.022C147.327 244.695 147.573 244.408 147.87 244.179C148.166 243.95 148.506 243.783 148.869 243.69L272.249 211.93C275.534 213.595 274.669 217 272.339 217.6Z"
          fill="#F2F2F2"/>
    <path d="M143.554 346.545C143.11 346.66 142.642 346.628 142.219 346.453L142.193 346.442L136.648 344.091C136.391 343.982 136.158 343.823 135.962 343.624C135.767 343.424 135.612 343.189 135.508 342.93C135.403 342.671 135.351 342.394 135.354 342.115C135.356 341.835 135.414 341.559 135.523 341.302C135.632 341.046 135.791 340.813 135.99 340.617C136.19 340.422 136.426 340.267 136.684 340.163C136.943 340.058 137.22 340.006 137.5 340.009C137.779 340.011 138.055 340.069 138.312 340.178L141.905 341.706L146.613 330.63C146.833 330.111 147.251 329.702 147.773 329.491C148.296 329.28 148.881 329.285 149.4 329.506L149.372 329.578L149.401 329.505C149.919 329.726 150.329 330.144 150.539 330.666C150.75 331.189 150.745 331.774 150.525 332.293L144.986 345.316C144.857 345.616 144.661 345.883 144.413 346.095C144.165 346.307 143.871 346.46 143.555 346.54L143.554 346.545Z"
          fill="white"/>
    <path d="M641.242 450.679L375.837 399.09C366.838 397.33 358.904 392.072 353.777 384.47C348.65 376.868 346.748 367.543 348.488 358.54L409.076 46.8433C410.836 37.8449 416.093 29.9119 423.694 24.7848C431.295 19.6576 440.62 17.755 449.622 19.4944L696.539 67.4901L740.851 119.477L681.789 423.327C680.03 432.326 674.773 440.26 667.172 445.388C659.57 450.516 650.245 452.419 641.242 450.679Z"
          fill="#F4F4F4"/>
    <path d="M447.722 29.2675C441.312 28.0289 434.672 29.3838 429.259 33.0349C423.846 36.686 420.102 42.3351 418.849 48.743L358.261 360.44C357.022 366.851 358.377 373.491 362.028 378.904C365.68 384.317 371.329 388.061 377.737 389.314L643.142 440.903C649.553 442.142 656.193 440.787 661.606 437.136C667.019 433.485 670.762 427.836 672.016 421.428L730.163 122.287L691.221 76.5988L447.722 29.2675Z"
          fill="white"/>
    <path d="M643.889 161.455L523.054 137.967C521.555 137.676 520.233 136.801 519.379 135.535C518.524 134.268 518.208 132.715 518.5 131.215C518.791 129.716 519.666 128.394 520.933 127.54C522.199 126.686 523.753 126.37 525.252 126.661L646.09 150.15C647.589 150.441 648.912 151.316 649.766 152.582C650.62 153.849 650.936 155.402 650.644 156.902C650.353 158.401 649.478 159.723 648.212 160.577C646.945 161.431 645.392 161.747 643.892 161.456L643.889 161.455Z"
          fill="#F4F4F4"/>
    <path d="M663.5 185.068L519.345 157.047C517.846 156.756 516.524 155.881 515.67 154.615C514.815 153.348 514.499 151.795 514.791 150.295C515.082 148.796 515.957 147.474 517.224 146.62C518.49 145.766 520.044 145.45 521.543 145.741L665.698 173.762C667.197 174.053 668.519 174.928 669.373 176.195C670.227 177.461 670.543 179.015 670.252 180.514C669.961 182.013 669.086 183.335 667.819 184.189C666.553 185.044 664.999 185.36 663.5 185.068Z"
          fill="#F4F4F4"/>
    <path d="M629.469 235.65L508.636 212.163C507.137 211.871 505.583 212.187 504.317 213.041C503.051 213.895 502.176 215.217 501.885 216.716C501.593 218.216 501.909 219.769 502.763 221.035C503.617 222.302 504.939 223.177 506.439 223.468L627.271 246.955C628.761 247.225 630.297 246.896 631.547 246.041C632.797 245.186 633.66 243.874 633.948 242.387C634.237 240.901 633.929 239.36 633.091 238.099C632.252 236.838 630.951 235.958 629.469 235.65Z"
          fill="#F4F4F4"/>
    <path d="M649.08 259.265L504.927 231.244C504.18 231.089 503.41 231.084 502.661 231.228C501.912 231.373 501.2 231.665 500.565 232.087C499.93 232.509 499.385 233.054 498.962 233.688C498.539 234.323 498.246 235.035 498.1 235.784C497.955 236.532 497.959 237.303 498.114 238.049C498.268 238.796 498.57 239.505 499 240.134C499.431 240.764 499.982 241.302 500.623 241.716C501.263 242.131 501.979 242.414 502.729 242.55L646.881 270.57C647.628 270.725 648.398 270.731 649.147 270.586C649.896 270.442 650.608 270.15 651.243 269.727C651.878 269.305 652.423 268.761 652.846 268.126C653.269 267.492 653.562 266.779 653.708 266.031C653.853 265.282 653.849 264.512 653.694 263.765C653.54 263.018 653.238 262.31 652.808 261.68C652.377 261.051 651.826 260.513 651.185 260.098C650.545 259.684 649.83 259.401 649.08 259.265Z"
          fill="#F4F4F4"/>
    <path d="M610.649 332.463L489.814 308.975C488.315 308.683 486.992 307.808 486.138 306.542C485.284 305.276 484.968 303.722 485.26 302.223C485.551 300.723 486.426 299.401 487.692 298.547C488.959 297.693 490.512 297.377 492.012 297.668L612.85 321.157C614.349 321.448 615.671 322.324 616.525 323.59C617.38 324.856 617.696 326.41 617.404 327.909C617.113 329.408 616.238 330.731 614.971 331.585C613.705 332.439 612.151 332.755 610.652 332.463L610.649 332.463Z"
          fill="#F4F4F4"/>
    <path d="M630.26 356.075L486.105 328.054C484.606 327.762 483.283 326.887 482.429 325.621C481.575 324.355 481.259 322.801 481.551 321.302C481.842 319.802 482.717 318.48 483.983 317.626C485.25 316.772 486.803 316.456 488.303 316.747L632.457 344.768C633.957 345.06 635.279 345.935 636.133 347.201C636.987 348.467 637.303 350.021 637.012 351.52C636.72 353.02 635.845 354.342 634.579 355.196C633.313 356.05 631.759 356.366 630.26 356.075Z"
          fill="#F4F4F4"/>
    <path d="M468.095 152.055C479.13 154.2 489.815 146.993 491.96 135.958C494.105 124.922 486.898 114.238 475.863 112.093C464.828 109.948 454.143 117.155 451.998 128.19C449.853 139.225 457.06 149.91 468.095 152.055Z"
          fill="#F4F4F4"/>
    <path d="M468.519 139.31C468.069 139.224 467.66 138.993 467.353 138.654L467.334 138.633L463.336 134.127C462.971 133.704 462.787 133.154 462.825 132.596C462.862 132.038 463.118 131.517 463.536 131.147C463.955 130.776 464.503 130.585 465.061 130.616C465.619 130.646 466.143 130.895 466.519 131.309L469.109 134.233L478.117 126.253C478.326 126.068 478.569 125.926 478.833 125.835C479.097 125.744 479.376 125.706 479.655 125.723C479.933 125.74 480.206 125.811 480.457 125.934C480.708 126.056 480.932 126.227 481.117 126.436L481.061 126.487L481.119 126.434C481.493 126.856 481.683 127.409 481.649 127.972C481.614 128.535 481.358 129.06 480.937 129.434L470.338 138.816C470.093 139.032 469.801 139.189 469.486 139.274C469.171 139.359 468.84 139.371 468.52 139.307L468.519 139.31Z"
          fill="white"/>
    <path d="M477.394 221.857C476.885 224.482 475.864 226.98 474.389 229.21C472.914 231.44 471.015 233.357 468.799 234.853C466.583 236.348 464.094 237.393 461.474 237.926C458.855 238.46 456.156 238.472 453.532 237.962C453.359 237.932 453.189 237.892 453.021 237.842C449.112 236.977 445.545 234.979 442.766 232.097C439.987 229.216 438.119 225.578 437.397 221.641C436.675 217.703 437.13 213.64 438.705 209.959C440.281 206.279 442.906 203.145 446.254 200.949C449.602 198.754 453.523 197.594 457.526 197.616C461.53 197.638 465.438 198.84 468.761 201.071C472.085 203.303 474.677 206.465 476.212 210.162C477.748 213.86 478.159 217.928 477.394 221.857Z"
          fill="#F4F4F4"/>
    <path d="M434.855 323.061C445.89 325.206 456.575 317.999 458.72 306.964C460.865 295.929 453.658 285.244 442.623 283.099C431.587 280.954 420.903 288.161 418.758 299.196C416.613 310.231 423.82 320.916 434.855 323.061Z"
          fill="#F4F4F4"/>
    <path d="M739.569 120.625L698.493 112.641C695.495 112.058 692.85 110.308 691.142 107.775C689.434 105.243 688.802 102.135 689.385 99.1365L695.282 68.7993C695.308 68.6666 695.37 68.5438 695.463 68.445C695.555 68.3463 695.674 68.2756 695.804 68.241C695.935 68.2065 696.073 68.2095 696.202 68.2497C696.332 68.2899 696.447 68.3657 696.535 68.4684L740.253 119.447C740.35 119.56 740.41 119.701 740.423 119.85C740.437 119.999 740.403 120.148 740.328 120.277C740.253 120.406 740.14 120.509 740.004 120.571C739.868 120.632 739.716 120.65 739.569 120.622L739.569 120.625Z"
          fill="#F4F4F4"/>
    <path d="M496.095 423.953C494.83 426.027 492.793 427.513 490.433 428.085C488.072 428.657 485.581 428.268 483.508 427.003L376.655 361.827C374.581 360.562 373.095 358.525 372.523 356.165C371.951 353.804 372.341 351.313 373.605 349.239C374.87 347.166 376.907 345.68 379.268 345.108C381.628 344.536 384.119 344.925 386.193 346.19L493.045 411.366C495.118 412.631 496.604 414.668 497.176 417.028C497.748 419.389 497.36 421.88 496.095 423.953Z"
          fill="#D6D6D6"/>
    <path d="M389.242 358.782C381.697 371.153 370.653 381.008 357.506 387.102C344.359 393.196 329.701 395.255 315.384 393.018C301.068 390.782 287.736 384.35 277.074 374.536C266.413 364.722 258.901 351.968 255.489 337.885C252.077 323.802 252.917 309.023 257.904 295.418C262.891 281.813 271.8 269.992 283.505 261.45C295.21 252.908 309.185 248.029 323.663 247.429C338.141 246.83 352.471 250.537 364.842 258.082C373.056 263.092 380.204 269.671 385.875 277.443C391.547 285.215 395.633 294.028 397.898 303.378C400.164 312.729 400.566 322.435 399.081 331.941C397.595 341.447 394.252 350.568 389.242 358.782ZM279.784 292.012C274.125 301.29 271.345 312.038 271.794 322.897C272.244 333.756 275.903 344.237 282.31 353.016C288.716 361.795 297.582 368.477 307.786 372.217C317.99 375.957 329.074 376.587 339.636 374.028C350.199 371.468 359.765 365.835 367.125 357.838C374.485 349.842 379.309 339.843 380.987 329.106C382.664 318.368 381.12 307.374 376.549 297.514C371.978 287.654 364.587 279.371 355.308 273.712C342.866 266.124 327.92 263.789 313.756 267.22C299.593 270.652 287.373 279.57 279.784 292.012Z"
          fill="#D6D6D6"/>
    <path d="M307.321 373.765C337.09 384.015 369.532 368.192 379.782 338.423C390.032 308.655 374.209 276.213 344.44 265.963C314.671 255.712 282.23 271.535 271.979 301.304C261.729 331.073 277.552 363.515 307.321 373.765Z"
          fill="#F4F4F4"/>
</svg>
